<?xml version="1.0" encoding="UTF-8"?>
<svg version="1.1" xmlns="http://www.w3.org/2000/svg" width="500" height="500">
	<path d="M0 0 C2.27623238 0.01386167 4.54833101 -0.02032001 6.82421875 -0.05834961 C30.24625581 -0.18053692 46.7485187 12.35565222 62.82279968 28.22836304 C65.92287577 31.3061092 69.01011816 34.39650316 72.09643555 37.48803711 C73.8087901 39.19603789 75.52155996 40.90362239 77.23471069 42.61082458 C81.3820914 46.74625822 85.52478143 50.88634476 89.66501697 55.02893113 C93.03312967 58.39883524 96.4030209 61.76695104 99.77414894 65.13383865 C100.49698101 65.85577794 100.49698101 65.85577794 101.23441574 66.59230185 C102.2137069 67.57038112 103.19299918 68.54845927 104.17229257 69.5265363 C113.32962675 78.67302551 122.48047024 87.82598692 131.6293265 96.98095508 C139.98091776 105.33771726 148.34069898 113.68623121 156.70437088 122.03090124 C165.31666311 130.62377822 173.92334045 139.22224258 182.52405483 147.82670844 C187.34305668 152.64761617 192.16419751 157.46633532 196.99124718 162.27918625 C201.52964778 166.8049768 206.06068209 171.33801719 210.58626938 175.87661934 C212.24284894 177.53555697 213.90196127 179.19197013 215.56385612 180.84558296 C233.99690637 199.19341829 247.29485453 215.87625621 247.40783691 242.94577026 C247.40860229 243.60763336 247.40936768 244.26949646 247.41015625 244.95141602 C247.4162793 246.2347583 247.42240234 247.51810059 247.42871094 248.84033203 C247.28871706 259.40781102 245.064689 267.97228779 240.41015625 277.38891602 C240.13429688 277.99799805 239.8584375 278.60708008 239.57421875 279.23461914 C232.59697579 293.43417352 218.90056992 304.87948292 207.86328125 315.89794922 C206.16483869 317.60074782 204.46681165 319.30396096 202.76916504 321.0075531 C198.66474213 325.1239008 194.55569045 329.23558167 190.44412422 333.34479365 C187.09953372 336.68759037 183.75673642 340.03217043 180.41516113 343.37798119 C179.93691462 343.85682289 179.4586681 344.33566459 178.96592927 344.82901665 C177.99397008 345.80218775 177.02201201 346.77535996 176.05005503 347.74853327 C166.96983975 356.83958285 157.88316535 365.92415467 148.79447412 375.00672933 C140.49926941 383.2967599 132.21232154 391.59498868 123.92920542 399.89709625 C115.39502564 408.45069108 106.85525894 416.99867126 98.3094902 425.54068822 C93.52326504 430.32500801 88.73922581 435.11146375 83.96105957 439.90383339 C79.46971476 444.40778787 74.97112113 448.90437618 70.46696472 453.39551735 C68.82092595 455.03919825 67.17741106 456.68541139 65.53669739 458.33440781 C45.52426382 478.44052741 45.52426382 478.44052741 32.22265625 484.45141602 C31.62388672 484.73243164 31.02511719 485.01344727 30.40820312 485.30297852 C20.87657695 489.63460713 12.37815273 489.91419216 2.03515625 489.88891602 C0.72417969 489.9050293 -0.58679688 489.92114258 -1.9375 489.93774414 C-12.84130767 489.94321245 -21.35152836 487.80417911 -31.02734375 482.95141602 C-31.65318359 482.65879883 -32.27902344 482.36618164 -32.92382812 482.06469727 C-46.37840777 475.38473511 -56.82125631 463.13178529 -67.27612305 452.64892578 C-68.98846887 450.93929412 -70.70123897 449.23008733 -72.41439819 447.52127075 C-76.5617121 443.38209217 -80.7043687 439.2382971 -84.84470447 435.09213919 C-88.21263984 431.71966611 -91.58254769 428.34917564 -94.95383644 424.98005486 C-95.43572449 424.49847328 -95.91761253 424.0168917 -96.41410324 423.52071674 C-97.39339108 422.54206842 -98.37268337 421.56342456 -99.35198007 420.5847851 C-108.50910558 411.4333466 -117.66011939 402.27581652 -126.809014 393.11615043 C-134.64207626 385.2741513 -142.48037099 377.43741427 -150.32250977 369.60449219 C-159.45349047 360.48423806 -168.58118784 351.36071816 -177.70374233 342.2320351 C-178.67825684 341.25688356 -179.6527755 340.28173615 -180.62729836 339.30659294 C-181.10664709 338.82693566 -181.58599583 338.34727837 -182.07987028 337.85308601 C-185.44171844 334.48951828 -188.8058666 331.1282618 -192.17093468 327.76791573 C-196.70714934 323.23749885 -201.23840439 318.70217807 -205.76595688 314.16310501 C-207.42341439 312.50301407 -209.08255561 310.84460212 -210.74354362 309.18804359 C-232.26745125 287.71622892 -232.26745125 287.71622892 -237.52734375 275.76391602 C-237.86443359 275.04010742 -238.20152344 274.31629883 -238.54882812 273.57055664 C-241.44726976 267.21024885 -242.25669214 261.63625775 -242.328125 254.63500977 C-242.33619675 253.87148697 -242.34426849 253.10796417 -242.35258484 252.32130432 C-242.36637751 250.70673864 -242.37712108 249.09214439 -242.38500977 247.47753906 C-242.3964782 245.84756758 -242.41684786 244.21763212 -242.4465332 242.58789062 C-242.82216379 221.92401126 -236.3756886 207.6471974 -222.08984375 192.57641602 C-221.01874789 191.31281906 -219.95518642 190.04276156 -218.90234375 188.76391602 C-216.25931539 185.64033704 -213.23371429 183.19630813 -210.08984375 180.57641602 C-209.06898843 179.42795378 -208.0695244 178.2601968 -207.08984375 177.07641602 C-204.38836918 173.81213424 -201.3476232 171.29123223 -198.08984375 168.57641602 C-197.06898843 167.42795378 -196.0695244 166.2601968 -195.08984375 165.07641602 C-192.38836918 161.81213424 -189.3476232 159.29123223 -186.08984375 156.57641602 C-185.06898843 155.42795378 -184.0695244 154.2601968 -183.08984375 153.07641602 C-180.38836918 149.81213424 -177.3476232 147.29123223 -174.08984375 144.57641602 C-173.06898843 143.42795378 -172.0695244 142.2601968 -171.08984375 141.07641602 C-168.38836918 137.81213424 -165.3476232 135.29123223 -162.08984375 132.57641602 C-160.51774358 130.8483059 -159.02244198 129.07053134 -157.52734375 127.27563477 C-154.83022279 124.0874619 -151.96121952 121.24670507 -148.65234375 118.70141602 C-146.49976352 116.91634948 -144.92056652 115.27091378 -143.15234375 113.13891602 C-140.4264055 109.85524105 -137.3710593 107.31076231 -134.08984375 104.57641602 C-133.06898843 103.42795378 -132.0695244 102.2601968 -131.08984375 101.07641602 C-128.38836918 97.81213424 -125.3476232 95.29123223 -122.08984375 92.57641602 C-121.06898843 91.42795378 -120.0695244 90.2601968 -119.08984375 89.07641602 C-116.38836918 85.81213424 -113.3476232 83.29123223 -110.08984375 80.57641602 C-109.06898843 79.42795378 -108.0695244 78.2601968 -107.08984375 77.07641602 C-104.38836918 73.81213424 -101.3476232 71.29123223 -98.08984375 68.57641602 C-97.06898843 67.42795378 -96.0695244 66.2601968 -95.08984375 65.07641602 C-92.38836918 61.81213424 -89.3476232 59.29123223 -86.08984375 56.57641602 C-85.06898843 55.42795378 -84.0695244 54.2601968 -83.08984375 53.07641602 C-80.38836918 49.81213424 -77.3476232 47.29123223 -74.08984375 44.57641602 C-73.06898843 43.42795378 -72.0695244 42.2601968 -71.08984375 41.07641602 C-68.38836918 37.81213424 -65.3476232 35.29123223 -62.08984375 32.57641602 C-61.06898843 31.42795378 -60.0695244 30.2601968 -59.08984375 29.07641602 C-56.35519547 25.7777019 -53.42003744 23.26891304 -50.08984375 20.57641602 C-48.97609375 19.40079102 -48.97609375 19.40079102 -47.83984375 18.20141602 C-34.38926254 5.36222486 -18.29844591 -0.15497183 0 0 Z " fill="#D3D3D3" transform="translate(248.08984375,5.423583984375)"/>
	<path d="M0 0 C41.91 0 83.82 0 127 0 C128.15033784 19.55574324 128.15033784 19.55574324 128.0625 27.0625 C128.05798828 27.84431641 128.05347656 28.62613281 128.04882812 29.43164062 C128.03744066 31.28779685 128.01953777 33.14391168 128 35 C126.68 35 125.36 35 124 35 C123.81824219 34.27554688 123.63648438 33.55109375 123.44921875 32.8046875 C121.307706 24.56810001 119.53045453 17.82331046 112 13 C104.99279928 9.66936091 98.65322226 9.52935343 90.96875 9.48828125 C89.3295459 9.46332581 89.3295459 9.46332581 87.65722656 9.43786621 C83.60501017 9.38036703 79.55246979 9.34788925 75.5 9.3125 C66.425 9.209375 57.35 9.10625 48 9 C48 29.46 48 49.92 48 71 C55.569375 70.9175 63.13875 70.835 70.9375 70.75 C73.30929443 70.73420898 75.68108887 70.71841797 78.12475586 70.70214844 C80.02980934 70.67275117 81.93484146 70.6419205 83.83984375 70.609375 C85.29299988 70.60768311 85.29299988 70.60768311 86.7755127 70.60595703 C93.16392591 70.47311821 98.53271687 69.47317378 104 66 C108.30388836 60.59255052 109.07339094 54.74230015 110 48 C111.32 48 112.64 48 114 48 C114 66.48 114 84.96 114 104 C112.68 104 111.36 104 110 104 C109.85304688 102.90300781 109.70609375 101.80601562 109.5546875 100.67578125 C109.32945393 99.22114778 109.10281689 97.76673113 108.875 96.3125 C108.7821875 95.59126953 108.689375 94.87003906 108.59375 94.12695312 C107.90875886 89.95992368 107.26052149 88.27499491 104.2578125 85.10546875 C97.68308308 80.85633307 91.74256867 80.67409504 84.1328125 80.5859375 C83.09808807 80.56657135 82.06336365 80.5472052 80.99728394 80.5272522 C77.70660533 80.46768158 74.41589132 80.42116095 71.125 80.375 C68.88800595 80.33679952 66.65102628 80.29774659 64.4140625 80.2578125 C58.94283642 80.16199862 53.47152305 80.07688569 48 80 C48.0381047 88.24124646 48.09753465 96.48194999 48.18390274 104.72281837 C48.22334698 108.549767 48.25555011 112.37648659 48.27099609 116.20361328 C48.2861833 119.89974178 48.32066404 123.59524051 48.36830902 127.2910881 C48.38310181 128.69836313 48.39103981 130.10572808 48.39188385 131.5130806 C48.39426121 133.4901103 48.42366946 135.46705075 48.45410156 137.44384766 C48.46298401 138.56747711 48.47186646 139.69110657 48.48101807 140.8487854 C49.13479155 144.81844295 50.3575286 146.97795752 53 150 C55.55057163 150.8722869 55.55057163 150.8722869 58.40771484 150.71289062 C59.48918793 150.71889282 60.57066101 150.72489502 61.68490601 150.7310791 C62.8484964 150.7063855 64.01208679 150.68169189 65.2109375 150.65625 C67.01227646 150.65063049 67.01227646 150.65063049 68.8500061 150.64489746 C71.39035134 150.63145201 73.93065502 150.60361358 76.47070312 150.5625 C80.35325751 150.50034805 84.23418556 150.4805734 88.1171875 150.46875 C90.58595723 150.45040243 93.05471048 150.42964849 95.5234375 150.40625 C96.68297943 150.39775024 97.84252136 150.38925049 99.03720093 150.38049316 C107.97792709 150.46148028 107.97792709 150.46148028 115.6796875 146.4921875 C116.11539063 145.99976563 116.55109375 145.50734375 117 145 C118.03125 144.38125 119.0625 143.7625 120.125 143.125 C127.64741867 137.88645791 132.75714344 127.93229705 137 120 C138.65 120 140.3 120 142 120 C141.5771875 121.23492187 141.154375 122.46984375 140.71875 123.7421875 C138.45658177 130.52603706 136.54834164 137.41231411 134.60546875 144.29296875 C134.31285156 145.31261719 134.02023437 146.33226562 133.71875 147.3828125 C133.33106445 148.75010498 133.33106445 148.75010498 132.93554688 150.14501953 C131.83405924 153.50639647 130.39339061 156.74875524 129 160 C86.43 160 43.86 160 0 160 C0 158.68 0 157.36 0 156 C0.79664063 155.90203125 1.59328125 155.8040625 2.4140625 155.703125 C10.88493334 154.53344733 10.88493334 154.53344733 18 150 C21.05736029 145.67752511 22.12344826 142.14398843 22.14044189 136.89616394 C22.14615204 135.8405275 22.15186218 134.78489105 22.15774536 133.69726562 C22.15886322 132.53928467 22.15998108 131.38130371 22.16113281 130.18823242 C22.16609772 128.96848221 22.17106262 127.74873199 22.17617798 126.49201965 C22.18828768 123.14477775 22.19574509 119.79759832 22.20018864 116.45034194 C22.20312111 114.3582474 22.20722626 112.26615833 22.21169281 110.17406654 C22.22536558 103.62587389 22.23503315 97.07769373 22.2388947 90.52948779 C22.24337419 82.9752814 22.2609178 75.42125606 22.2898953 67.86710471 C22.31152619 62.02495682 22.32159974 56.18285982 22.32293582 50.34067231 C22.3239829 46.85283433 22.32986985 43.36516659 22.34775543 39.87737083 C22.36732828 35.98483846 22.36294151 32.09253156 22.35644531 28.19995117 C22.3656601 27.04804291 22.37487488 25.89613464 22.3843689 24.70932007 C22.35490711 19.08006759 22.28784951 14.80821614 19 10 C13.67735552 4.9574947 7.05802543 4.79586043 0 4 C0 2.68 0 1.36 0 0 Z " fill="#040404" transform="translate(181,174)"/>
	<path d="M0 0 C23.51656696 -1.03815325 39.23168035 4.13269819 57 20 C62.86345506 25.49770333 68.50828786 31.22403259 74.1862793 36.91162109 C75.89863385 38.61962187 77.61140371 40.32720637 79.32455444 42.03440857 C83.47193515 46.16984221 87.61462518 50.30992874 91.75486072 54.45251511 C95.12297342 57.82241923 98.49286465 61.19053503 101.86399269 64.55742264 C102.58682476 65.27936192 102.58682476 65.27936192 103.32425949 66.01588584 C104.30355065 66.99396511 105.28284293 67.97204325 106.26213632 68.95012029 C115.4194705 78.0966095 124.57031399 87.24957091 133.71917025 96.40453906 C142.07076151 104.76130124 150.43054273 113.1098152 158.79421463 121.45448522 C167.40650686 130.04736221 176.0131842 138.64582656 184.61389858 147.25029242 C189.43290043 152.07120016 194.25404126 156.88991931 199.08109093 161.70277023 C203.61949153 166.22856078 208.15052584 170.76160117 212.67611313 175.30020332 C214.33269269 176.95914096 215.99180502 178.61555411 217.65369987 180.26916695 C236.08675012 198.61700227 249.38469828 215.2998402 249.49768066 242.36935425 C249.49844604 243.03121735 249.49921143 243.69308044 249.5 244.375 C249.50612305 245.65834229 249.51224609 246.94168457 249.51855469 248.26391602 C249.37856081 258.83139501 247.15453275 267.39587178 242.5 276.8125 C242.22414063 277.42158203 241.94828125 278.03066406 241.6640625 278.65820312 C234.68681954 292.85775751 220.99041367 304.30306691 209.953125 315.3215332 C208.25468244 317.02433181 206.5566554 318.72754495 204.85900879 320.43113708 C200.75458588 324.54748479 196.6455342 328.65916565 192.53396797 332.76837764 C189.18937747 336.11117435 185.84658017 339.45575442 182.50500488 342.80156517 C182.02675837 343.28040687 181.54851185 343.75924858 181.05577302 344.25260064 C180.08381383 345.22577174 179.11185576 346.19894395 178.13989878 347.17211726 C169.0596835 356.26316684 159.9730091 365.34773865 150.88431787 374.43031331 C142.58911316 382.72034388 134.30216529 391.01857267 126.01904917 399.32068024 C117.48486939 407.87427506 108.94510269 416.42225525 100.39933395 424.9642722 C95.61310879 429.74859199 90.82906956 434.53504773 86.05090332 439.32741737 C81.55955851 443.83137186 77.06096488 448.32796017 72.55680847 452.81910133 C70.9107697 454.46278224 69.26725481 456.10899537 67.62654114 457.75799179 C47.61410757 477.86411139 47.61410757 477.86411139 34.3125 483.875 C33.71373047 484.15601563 33.11496094 484.43703125 32.49804688 484.7265625 C22.9664207 489.05819111 14.46799648 489.33777614 4.125 489.3125 C2.81402344 489.32861328 1.50304687 489.34472656 0.15234375 489.36132812 C-10.75146392 489.36679643 -19.26168461 487.22776309 -28.9375 482.375 C-29.56333984 482.08238281 -30.18917969 481.78976562 -30.83398438 481.48828125 C-44.28856402 474.80831909 -54.73141256 462.55536927 -65.1862793 452.07250977 C-66.89862512 450.36287811 -68.61139522 448.65367132 -70.32455444 446.94485474 C-74.47186835 442.80567615 -78.61452495 438.66188109 -82.75486072 434.51572318 C-86.12279609 431.1432501 -89.49270394 427.77275963 -92.86399269 424.40363884 C-93.34588074 423.92205726 -93.82776878 423.44047568 -94.32425949 422.94430072 C-95.30354733 421.9656524 -96.28283962 420.98700854 -97.26213632 420.00836908 C-106.41926183 410.85693059 -115.57027564 401.69940051 -124.71917025 392.53973442 C-132.55223251 384.69773528 -140.39052724 376.86099826 -148.23266602 369.02807617 C-157.36364672 359.90782205 -166.49134409 350.78430214 -175.61389858 341.65561908 C-176.58841309 340.68046754 -177.56293175 339.70532014 -178.53745461 338.73017693 C-179.01680334 338.25051964 -179.49615208 337.77086235 -179.99002653 337.27667 C-183.35187469 333.91310227 -186.71602285 330.55184578 -190.08109093 327.19149971 C-194.61730559 322.66108284 -199.14856064 318.12576206 -203.67611313 313.586689 C-205.33357064 311.92659806 -206.99271186 310.26818611 -208.65369987 308.61162758 C-230.63012501 286.68839059 -230.63012501 286.68839059 -234 277 C-233.01 277 -232.02 277 -231 277 C-229.46484375 278.8984375 -229.46484375 278.8984375 -227.9375 281.375 C-226.38573499 283.86256224 -225.07727234 285.92272766 -223 288 C-223 288.99 -223 289.98 -223 291 C-222.01 291 -221.02 291 -220 291 C-218.60546875 292.609375 -218.60546875 292.609375 -217.1875 294.75 C-214.53146459 298.49737669 -211.88834583 300.51807713 -208 303 C-203 308.03937008 -203 308.03937008 -203 311 C-202.41863281 311.26554687 -201.83726562 311.53109375 -201.23828125 311.8046875 C-194.98991984 315.14150877 -190.29607114 320.69555229 -185.78125 326.03125 C-183.9672054 328.03624666 -182.06292323 329.75444957 -180 331.5 C-176.62263683 334.36622966 -173.78955363 337.43864871 -170.9296875 340.8125 C-167.16642604 345.07854538 -163.05251463 349.01124871 -159 353 C-157.99868335 353.99868161 -156.99871217 354.99871383 -156 356 C-153.3621482 358.64230763 -150.71947106 361.27928037 -148.0625 363.90234375 C-147.0416433 364.91403892 -146.0208102 365.92575791 -145 366.9375 C-144.49210937 367.43701172 -143.98421875 367.93652344 -143.4609375 368.45117188 C-140.9673436 370.9287812 -138.59971659 373.42964745 -136.37890625 376.15625 C-134.34299582 378.58998201 -132.37340617 380.55275634 -129.9375 382.5625 C-126.88942083 385.1522214 -124.4485559 387.82594606 -122 391 C-121.01 391.66 -120.02 392.32 -119 393 C-119 393.66 -119 394.32 -119 395 C-118.1646875 395.309375 -118.1646875 395.309375 -117.3125 395.625 C-114.73289896 397.15881683 -113.26057462 399.02351771 -111.41796875 401.359375 C-109.90179993 403.11361991 -108.28806035 404.52611077 -106.5 406 C-103.23571822 408.70147457 -100.71481621 411.74222055 -98 415 C-96.85153776 416.02085532 -95.68378078 417.02031935 -94.5 418 C-91.23571822 420.70147457 -88.71481621 423.74222055 -86 427 C-84.85153776 428.02085532 -83.68378078 429.02031935 -82.5 430 C-79.20128588 432.73464828 -76.69249702 435.66980631 -74 439 C-72.35511706 440.68816933 -70.68662458 442.35353315 -69 444 C-67.83198847 445.16532026 -66.66540472 446.33207275 -65.5 447.5 C-64.901875 448.098125 -64.30375 448.69625 -63.6875 449.3125 C-57 456 -57 456 -55.41796875 457.6171875 C-51.68700653 461.40710398 -47.82295741 464.9603696 -43.7890625 468.42578125 C-42.3642013 469.67953467 -41.01152557 471.01518995 -39.6875 472.375 C-37.99077259 474.24210971 -37.99077259 474.24210971 -35 475 C-35 475.66 -35 476.32 -35 477 C-34.37351563 477.19335938 -33.74703125 477.38671875 -33.1015625 477.5859375 C-31.87566406 477.97652344 -31.87566406 477.97652344 -30.625 478.375 C-29.81289062 478.63023437 -29.00078125 478.88546875 -28.1640625 479.1484375 C-26 480 -26 480 -24 482 C-8.440478 489.72126655 10.7143324 489.43869881 26.9375 484 C29.63646554 483.02836143 32.31659489 482.01420036 35 481 C35.66 481 36.32 481 37 481 C37 480.34 37 479.68 37 479 C37.78375 478.67 38.5675 478.34 39.375 478 C51.18156596 471.96329667 60.44367452 460.82732243 69.66137695 451.56567383 C71.32916496 449.89732092 72.99739498 448.22940977 74.66603088 446.56190491 C79.17425119 442.05425629 83.67629559 437.54048544 88.17722726 433.02556062 C92.41686729 428.7746462 96.66115651 424.52838077 100.90541019 420.28207394 C109.31138715 411.87173108 117.71289934 403.45694295 126.11157227 395.03930664 C134.25213076 386.88038696 142.39478818 378.7235715 150.5402832 370.56958008 C151.0426182 370.06671963 151.5449532 369.56385919 152.06251047 369.04576055 C154.58360576 366.52205434 157.10474276 363.9983898 159.62590086 361.47474635 C176.98859727 344.09485011 194.34688043 326.71055369 211.70056152 309.32165527 C212.43196907 308.58876854 213.16337661 307.85588181 213.91694802 307.10078639 C215.26192289 305.75306653 216.60687087 304.40531984 217.95178491 303.05753928 C218.54775041 302.46034038 219.14371591 301.86314149 219.75774097 301.24784565 C220.31210004 300.69166447 220.86645911 300.1354833 221.43761694 299.56244814 C222.88765297 298.11235171 224.34629463 296.67087451 225.80563641 295.23014355 C229.73600682 291.23568691 232.7795088 286.56970751 236 282 C237.11375 280.4840625 237.11375 280.4840625 238.25 278.9375 C240.71844279 274.79404246 242.42054042 270.54988357 244 266 C244.45439453 264.70835937 244.45439453 264.70835937 244.91796875 263.390625 C249.30194679 248.81852897 248.20805547 232.2132885 243 218 C242.03791251 216.63905715 241.04322016 215.29979593 240 214 C239.26171875 212.10546875 239.26171875 212.10546875 238.6875 210.1875 C237.28445921 206.15187192 235.13739956 203.51114796 232.20703125 200.4453125 C231 199 231 199 231 197 C230.01 196.67 229.02 196.34 228 196 C226.80208677 194.5691592 225.6085777 193.13412953 224.44921875 191.671875 C222.93778014 189.92822076 221.34445833 188.52583002 219.5625 187.0625 C216.47867206 184.51266824 214.00850176 181.73637448 211.46875 178.65625 C209.23813424 176.14087478 206.58340477 174.1436763 204 172 C203.195625 171.030625 202.39125 170.06125 201.5625 169.0625 C199.57639734 166.68886511 197.8466273 164.94116254 195.5 163 C193.20073926 161.096311 191.49645941 159.39316903 189.5625 157.0625 C186.82465811 153.79044506 183.86239907 151.21424249 180.57421875 148.515625 C180.05472656 148.01546875 179.53523438 147.5153125 179 147 C179 146.34 179 145.68 179 145 C178.01 144.67 177.02 144.34 176 144 C173.48784637 141.68108896 171.26220057 139.34357316 169.1875 136.625 C166.67367874 133.60841449 163.85997104 131.23327181 160.87890625 128.69140625 C158.62632775 126.66361729 156.8835911 124.36967913 155 122 C153.87078776 121.00171091 152.72322899 120.02396221 151.5625 119.0625 C149.24712519 117.1395616 147.51010737 115.40961657 145.5625 113.0625 C142.88826474 109.86646274 140.00667105 107.34709328 136.84375 104.65625 C134.60273296 102.643133 132.87210899 100.35523389 131 98 C129.16624234 96.39396388 127.29753771 94.8503504 125.390625 93.33203125 C124.93171875 92.89246094 124.4728125 92.45289062 124 92 C124 91.34 124 90.68 124 90 C123.42765625 89.7525 122.8553125 89.505 122.265625 89.25 C119.64989389 87.80683801 117.85226544 86.11783778 115.75 84 C114.69039063 82.948125 114.69039063 82.948125 113.609375 81.875 C112 80 112 80 112 78 C111.41210693 77.73807861 110.82421387 77.47615723 110.21850586 77.20629883 C107.88090333 75.93524192 106.36347396 74.59262044 104.50390625 72.69921875 C103.86259766 72.05146484 103.22128906 71.40371094 102.56054688 70.73632812 C101.57151367 69.7221582 101.57151367 69.7221582 100.5625 68.6875 C99.90701172 68.02298828 99.25152344 67.35847656 98.57617188 66.67382812 C97.29252662 65.37215776 96.01074183 64.06864969 94.73095703 62.76318359 C92.50260161 60.49334116 90.25284466 58.24551833 88 56 C87.02066585 55.02100084 86.04150837 54.04182494 85.0625 53.0625 C84.55976563 52.55976562 84.05703125 52.05703125 83.5390625 51.5390625 C81.02604167 49.02604167 78.51302083 46.51302083 76 44 C75.21181885 43.21254395 74.4236377 42.42508789 73.61157227 41.61376953 C71.16158308 39.16171903 68.71846114 36.70306596 66.27734375 34.2421875 C64.4974635 32.45305768 62.71751363 30.66399712 60.9375 28.875 C60.03966797 27.96878906 59.14183594 27.06257813 58.21679688 26.12890625 C57.34990234 25.25878906 56.48300781 24.38867188 55.58984375 23.4921875 C54.80472412 22.70183105 54.01960449 21.91147461 53.21069336 21.09716797 C51.06997523 18.97398373 51.06997523 18.97398373 48.71313477 17.34423828 C48.14780029 16.90063965 47.58246582 16.45704102 47 16 C47 15.34 47 14.68 47 14 C46.113125 13.731875 45.22625 13.46375 44.3125 13.1875 C41.22044287 12.07902669 38.77559525 10.72537002 36 9 C35.01 8.67 34.02 8.34 33 8 C33 7.34 33 6.68 33 6 C31.88625 5.896875 30.7725 5.79375 29.625 5.6875 C26.38086855 5.29684543 23.52407805 4.55988023 20.4375 3.5 C13.7845741 1.36564975 6.93163582 1.26802325 0 1 C0 0.67 0 0.34 0 0 Z " fill="#FAFAFA" transform="translate(246,6)"/>
	<path d="M0 0 C1.66611905 -0.042721 3.33382885 -0.04063832 5 0 C6 1 6 1 6.12025452 3.28419495 C6.11803391 4.29457321 6.11581329 5.30495148 6.11352539 6.34594727 C6.11344986 7.4870546 6.11337433 8.62816193 6.11329651 9.80384827 C6.10813522 11.0454924 6.10297394 12.28713654 6.09765625 13.56640625 C6.0962413 14.83016586 6.09482635 16.09392548 6.09336853 17.39598083 C6.08870582 20.76124889 6.0797148 24.1264499 6.06866455 27.49169922 C6.05844846 30.9234967 6.05387049 34.35530109 6.04882812 37.78710938 C6.0377738 44.52475824 6.0210171 51.26237525 6 58 C5.34 58 4.68 58 4 58 C4 39.52 4 21.04 4 2 C2.68 2 1.36 2 0 2 C0 1.34 0 0.68 0 0 Z " fill="#8E8E8E" transform="translate(291,220)"/>
</svg>
